<?xml version="1.0" standalone="no"?>
<!DOCTYPE svg PUBLIC "-//W3C//DTD SVG 20010904//EN"
 "http://www.w3.org/TR/2001/REC-SVG-20010904/DTD/svg10.dtd">
<svg version="1.0" xmlns="http://www.w3.org/2000/svg"
 width="629.000000pt" height="629.000000pt" viewBox="0 0 629.000000 629.000000"
 preserveAspectRatio="xMidYMid meet">
<metadata>
Created by potrace 1.14, written by Peter Selinger 2001-2017
</metadata>
<g transform="translate(0.000000,629.000000) scale(0.100000,-0.100000)"
fill="#000000" stroke="none">
<path d="M2330 5419 c-190 -71 -350 -127 -357 -124 -7 2 -13 12 -13 21 0 9 -6
14 -12 12 -261 -95 -278 -102 -278 -120 0 -10 6 -21 13 -24 7 -2 73 18 146 46
73 27 137 47 142 44 5 -3 9 -11 9 -19 0 -8 4 -17 10 -20 5 -3 114 32 240 79
127 48 235 86 239 86 5 0 11 -9 14 -21 4 -15 -1 -22 -19 -29 -21 -9 -23 -13
-14 -31 7 -11 10 -22 8 -24 -2 -1 -55 -22 -118 -45 -63 -24 -117 -44 -118 -46
-2 -1 -1 -12 3 -23 4 -14 14 -19 33 -18 21 2 28 -3 30 -19 4 -29 -38 -42 -45
-13 -7 24 -20 24 -84 -1 -56 -22 -79 -21 -79 6 0 9 -6 14 -12 12 -290 -105
-279 -100 -273 -127 5 -25 1 -28 -83 -58 -49 -18 -94 -33 -100 -33 -6 0 -16
17 -22 38 -16 48 -20 52 -47 41 -21 -8 -22 -10 -8 -43 23 -53 19 -64 -25 -77
-44 -13 -47 -23 -25 -74 l14 -35 -36 -15 c-19 -8 -39 -15 -44 -15 -13 0 -11
-23 6 -64 15 -36 13 -56 -6 -56 -5 0 -25 -6 -44 -14 l-35 -15 15 -42 c18 -49
18 -59 5 -59 -6 0 -26 -7 -46 -15 l-35 -14 16 -38 c20 -47 15 -58 -30 -73 -32
-10 -36 -16 -32 -37 3 -19 -1 -26 -20 -34 -21 -8 -22 -12 -12 -30 12 -23 0
-39 -30 -39 -10 0 -12 -9 -7 -34 5 -28 3 -34 -14 -39 -17 -4 -20 -10 -14 -32
5 -21 3 -27 -15 -32 -11 -3 -21 -6 -21 -8 0 -1 7 -22 15 -45 16 -45 13 -60
-11 -60 -12 0 -14 -7 -9 -30 5 -23 3 -30 -9 -30 -24 0 -27 -15 -11 -60 8 -23
15 -44 15 -45 0 -2 -10 -5 -21 -8 -17 -5 -20 -11 -15 -31 5 -19 2 -26 -14 -31
-24 -8 -24 -11 -5 -65 16 -44 13 -60 -10 -60 -23 0 -26 -16 -10 -60 18 -52 18
-50 0 -50 -26 0 -27 -24 -5 -79 25 -65 25 -77 0 -84 -21 -5 -21 -5 -1 -57 l19
-51 -23 -9 -24 -9 23 -63 c13 -35 33 -87 44 -116 l20 -52 -23 -13 -23 -12 35
-89 c34 -92 36 -116 7 -116 -9 0 -14 -6 -12 -12 3 -7 27 -73 53 -146 49 -135
49 -141 12 -154 -4 -2 45 -143 108 -313 104 -279 113 -311 99 -322 -9 -7 -21
-14 -27 -16 -5 -1 -7 -13 -2 -26 5 -16 12 -20 23 -16 37 15 44 9 69 -57 23
-62 26 -66 48 -58 19 7 24 4 34 -16 9 -21 14 -23 31 -14 17 9 22 7 32 -15 11
-25 41 -34 53 -15 3 5 -4 30 -15 55 -33 72 -36 101 -11 108 20 5 20 6 -10 88
-17 46 -49 132 -70 192 l-39 108 25 9 c22 9 24 13 15 31 -7 11 -10 22 -8 23 2
1 13 6 24 12 l22 9 -28 73 -29 73 29 10 28 10 -15 46 c-16 46 -13 54 20 65 4
2 -4 34 -18 71 -14 37 -25 69 -25 71 0 2 10 6 21 9 18 5 20 11 15 32 -6 22 -3
28 14 32 17 5 19 11 15 37 -6 29 -3 33 28 44 50 18 54 16 70 -30 12 -37 18
-43 43 -43 20 0 30 -6 32 -18 3 -15 10 -18 37 -13 27 5 33 3 38 -14 4 -17 10
-20 32 -14 21 5 27 3 32 -15 3 -11 6 -21 8 -21 1 0 22 7 45 15 45 16 60 13 60
-11 0 -19 7 -18 83 11 64 24 66 24 72 5 4 -11 14 -20 23 -19 9 0 85 26 167 58
144 55 150 58 147 84 -2 21 2 28 23 33 22 6 25 10 20 34 -5 23 -2 30 14 35 17
5 20 12 15 31 -5 20 -2 26 14 31 17 4 20 11 16 33 -5 22 -2 28 15 33 18 4 20
9 11 31 -8 23 -7 26 15 32 28 7 29 8 15 35 -9 16 -7 21 15 29 22 8 24 13 15
29 -15 29 -13 38 11 44 17 5 20 11 15 30 -5 23 -1 27 59 51 79 31 82 32 90 5
5 -16 12 -19 31 -15 19 5 27 1 36 -19 9 -19 16 -23 34 -19 33 9 45 -24 16 -44
-19 -13 -20 -16 -6 -54 18 -51 18 -58 0 -58 -8 0 -17 -4 -20 -9 -4 -6 87 -272
98 -288 1 -1 12 0 25 4 18 5 21 10 16 31 -4 16 -1 28 7 33 17 11 38 11 38 0 0
-5 7 -25 15 -44 l15 -36 42 15 c47 16 68 13 68 -11 0 -13 6 -15 29 -10 23 5
29 2 34 -15 4 -17 10 -20 32 -14 21 5 27 3 32 -14 4 -17 10 -20 34 -15 21 4
29 2 29 -8 1 -37 15 -39 80 -14 74 29 80 30 80 11 0 -8 4 -18 10 -21 11 -7
248 77 295 105 17 10 43 20 58 24 18 4 28 13 26 24 -3 32 1 41 20 47 23 7 17
35 -7 35 -13 0 -11 4 6 16 12 8 20 20 17 25 -3 5 1 6 9 3 16 -6 16 -2 1 67 -5
21 -2 28 15 32 18 5 21 11 15 35 -4 22 -2 31 9 35 9 4 16 14 16 22 0 10 -5 13
-12 9 -7 -4 -6 0 2 8 8 8 35 23 58 32 43 16 44 16 49 -5 5 -17 11 -20 38 -15
27 5 33 3 38 -14 4 -16 11 -19 30 -15 20 5 27 2 32 -15 7 -21 -2 -33 -28 -43
-5 -1 -5 -10 -1 -20 4 -12 15 -16 33 -15 23 3 27 -2 42 -47 15 -48 15 -50 -3
-57 -23 -9 -23 -12 11 -105 104 -282 105 -285 90 -294 -8 -5 -20 -9 -26 -9
-17 0 -16 -10 2 -54 17 -39 13 -56 -11 -56 -20 0 -18 -8 20 -110 l34 -90 -23
-13 c-18 -10 -21 -16 -14 -35 7 -17 14 -21 32 -17 20 5 26 0 42 -35 19 -42 16
-50 -18 -63 -5 -1 3 -33 17 -71 30 -79 31 -86 12 -86 -26 0 -27 -18 -2 -83
l24 -65 -66 -25 c-60 -22 -67 -28 -67 -52 0 -25 -7 -29 -80 -56 -139 -50 -152
-58 -147 -84 3 -17 -2 -25 -17 -30 -16 -5 -19 -12 -15 -34 4 -21 1 -30 -11
-34 -10 -4 -15 -15 -13 -29 2 -18 -5 -25 -42 -39 -24 -9 -46 -22 -48 -28 -2
-6 3 -30 12 -52 9 -21 16 -41 16 -43 0 -3 -17 -10 -37 -17 -92 -30 -103 -37
-94 -63 9 -22 5 -24 -62 -48 -67 -24 -72 -28 -69 -53 2 -20 -2 -28 -17 -32
-16 -4 -19 -11 -15 -32 5 -25 2 -27 -115 -70 -115 -41 -119 -44 -111 -66 9
-25 12 -24 -153 -85 -24 -9 -26 -12 -17 -31 7 -11 10 -22 8 -24 -6 -6 -172
-65 -183 -65 -7 0 -16 9 -21 19 -9 19 -13 18 -99 -14 -89 -34 -96 -34 -108 0
-2 6 -23 3 -52 -7 -49 -19 -65 -17 -65 8 0 18 -7 18 -60 -1 -40 -14 -42 -14
-47 5 -6 24 -22 25 -68 6 -35 -15 -40 -22 -29 -49 5 -14 10 -14 47 -1 45 16
67 13 67 -11 0 -18 -2 -18 50 0 45 16 60 13 60 -11 0 -18 9 -18 55 2 42 17 65
13 65 -12 0 -19 1 -19 117 25 l81 30 6 -24 c4 -14 12 -25 18 -25 7 0 52 14
100 31 l88 32 -6 33 c-4 21 -2 34 4 34 6 0 46 14 90 31 74 28 80 32 79 56 -2
25 5 29 111 67 108 39 113 42 108 67 -4 23 0 27 45 43 43 16 49 21 47 44 -3
23 3 28 60 50 56 21 62 27 60 49 -3 22 3 28 40 41 38 12 43 17 38 38 -5 17 -1
26 14 34 15 8 19 17 14 34 -5 20 1 25 41 40 25 10 48 16 50 14 2 -2 19 -46 38
-98 19 -52 38 -102 42 -112 4 -11 0 -18 -15 -23 -17 -5 -21 -13 -17 -32 3 -19
-1 -26 -20 -34 -21 -8 -24 -13 -18 -40 6 -25 4 -31 -14 -36 -12 -3 -21 -6 -21
-8 0 -1 7 -22 15 -45 16 -45 13 -60 -11 -60 -18 0 -18 -10 2 -60 14 -34 20
-40 38 -34 11 4 22 7 24 9 1 1 -5 21 -13 45 -16 45 -13 60 11 60 18 0 18 9 -1
53 -19 47 -19 46 11 57 22 9 25 14 19 39 -5 24 -2 30 14 36 16 5 19 12 15 34
-5 25 -2 28 37 40 42 13 50 10 61 -22 2 -4 24 0 50 9 43 16 45 19 37 42 -8 20
-6 25 12 29 17 5 20 11 15 33 -4 24 -1 29 21 35 22 5 24 10 20 34 -5 23 -2 30
15 34 16 5 19 11 14 30 -5 22 -1 26 39 42 40 15 44 19 39 41 -5 20 -2 26 14
31 17 4 20 11 16 33 -5 22 -2 28 16 33 14 3 20 11 17 19 -3 7 -8 20 -12 30 -4
11 0 18 15 23 16 5 20 13 18 32 -3 22 3 28 42 43 38 15 45 22 42 43 -2 20 5
27 42 41 41 16 44 19 36 42 -8 20 -6 25 15 30 21 5 23 9 15 30 -8 21 -6 26 16
34 22 9 23 13 13 31 -11 21 0 38 25 39 4 0 6 12 3 26 -4 20 1 27 20 35 20 7
24 14 19 33 -5 19 -1 26 14 31 17 5 20 12 14 39 -5 28 -2 34 16 39 16 4 20 10
15 30 -5 20 -2 27 14 32 16 5 20 12 15 30 -4 17 0 26 14 34 14 7 18 17 15 36
-3 14 -1 25 3 25 28 1 34 17 19 53 -20 47 -19 54 5 62 15 5 19 12 14 30 -4 17
0 26 15 35 24 12 41 6 41 -16 0 -8 5 -14 12 -14 20 0 178 62 178 70 0 4 -7 27
-15 51 -15 42 -10 58 19 59 4 0 6 10 2 23 -4 15 1 27 15 37 19 15 19 18 4 59
-8 24 -15 45 -15 46 0 2 12 6 26 9 22 6 25 11 20 32 -5 20 -3 27 14 31 11 3
20 8 20 12 0 3 -14 48 -32 99 -32 90 -34 93 -59 88 -23 -4 -28 0 -42 36 -18
45 -16 53 12 61 15 3 21 -4 30 -34 13 -44 23 -53 51 -44 19 6 19 8 -5 72 -29
76 -30 83 -11 83 24 0 27 15 11 60 -18 52 -18 50 0 50 24 0 28 24 11 65 -20
46 -20 55 -2 55 8 0 18 5 21 10 4 6 -21 84 -55 174 -60 159 -63 164 -85 156
-23 -9 -25 -4 -77 136 -51 140 -54 144 -78 139 -23 -5 -27 -1 -39 32 -50 140
-51 142 -77 140 -22 -2 -29 5 -42 39 -15 37 -20 40 -40 33 -18 -7 -24 -5 -29
9 -27 76 -33 84 -57 78 -20 -5 -25 0 -41 39 -19 51 -16 49 -49 34 -20 -10 -23
-15 -16 -34 8 -22 -3 -35 -30 -35 -20 0 -20 35 0 50 l21 16 -22 59 c-28 75
-32 79 -57 66 -20 -10 -20 -13 -6 -46 19 -46 18 -62 -5 -68 -16 -4 -23 4 -35
34 -20 49 -20 59 -2 59 27 0 28 20 1 90 -24 62 -29 68 -52 67 -24 -2 -29 6
-77 136 -50 135 -51 138 -77 133 -21 -4 -28 -1 -32 16 -5 16 -11 19 -31 14
-22 -5 -26 -1 -42 39 -9 25 -18 45 -19 45 -1 0 -22 -7 -46 -15 -42 -15 -58
-10 -59 18 0 5 -13 6 -29 2 -23 -5 -32 -2 -40 13 -7 14 -18 18 -35 15 -18 -4
-26 0 -31 16 -5 16 -10 19 -30 11 -20 -8 -25 -5 -34 21 -9 26 -13 28 -35 19
-23 -8 -27 -6 -32 15 -5 21 -9 23 -31 14 -21 -8 -26 -6 -30 12 -5 17 -11 20
-33 15 -22 -4 -29 -1 -33 16 -5 17 -11 19 -32 14 -22 -6 -28 -3 -32 14 -5 18
-11 21 -38 16 -27 -5 -33 -3 -38 14 -4 17 -10 20 -32 14 -21 -5 -27 -3 -32 15
-3 11 -6 21 -8 21 -1 0 -22 -7 -45 -15 -44 -16 -60 -13 -60 10 0 23 -16 26
-60 10 -23 -8 -44 -15 -45 -15 -2 0 -5 10 -8 21 -5 17 -11 20 -31 15 -19 -5
-26 -2 -31 14 -8 24 -11 24 -65 5 -45 -16 -60 -13 -60 11 0 18 -12 18 -56 -1
-38 -16 -54 -13 -54 11 0 18 -6 18 -76 -6 -62 -22 -84 -20 -84 5 0 19 1 19
-58 -4 l-49 -20 -11 24 -11 24 -62 -25 c-77 -30 -77 -30 -85 1 -3 14 -11 25
-18 24 -6 0 -166 -59 -356 -130z m940 41 c9 -17 7 -22 -12 -29 -18 -7 -25 -5
-32 11 -7 14 -6 22 5 29 21 13 27 11 39 -11z m119 -9 c8 -15 5 -20 -16 -30
-27 -12 -42 -3 -43 26 0 26 46 29 59 4z m-951 -246 c4 -18 -13 -35 -34 -35
-20 0 -24 39 -6 50 22 12 36 7 40 -15z m1702 -14 c0 -5 3 -16 6 -24 7 -20 -35
-34 -47 -16 -14 22 -10 37 9 42 28 8 32 7 32 -2z m65 -42 c7 -22 -10 -42 -30
-36 -16 6 -18 39 -3 48 20 13 26 11 33 -12z m78 -29 c4 -16 11 -19 30 -15 25
7 44 -16 31 -36 -10 -17 -42 -9 -47 11 -4 18 -9 19 -33 10 -21 -8 -29 -8 -36
2 -13 21 -9 36 10 41 33 9 40 7 45 -13z m127 -60 c8 -15 17 -19 34 -14 22 5
26 -2 66 -111 35 -96 40 -119 29 -126 -24 -15 -32 -5 -68 90 -32 85 -37 92
-58 86 -20 -5 -26 0 -39 31 -8 20 -13 43 -10 50 8 21 34 17 46 -6z m-695 -41
c7 -21 -7 -39 -32 -39 -18 0 -27 41 -12 51 23 14 37 10 44 -12z m160 -149 c3
-11 3 -24 0 -30 -8 -13 -45 -13 -45 -1 0 5 -3 16 -6 24 -5 14 5 20 38 26 4 0
9 -8 13 -19z m773 -164 c21 -57 23 -69 11 -77 -22 -14 -33 -5 -50 42 -14 36
-21 43 -39 41 -22 -4 -40 12 -40 35 0 10 65 33 84 29 5 -1 20 -33 34 -70z
m-706 -13 c9 -26 16 -48 15 -49 -1 -1 -12 -5 -24 -8 -19 -6 -25 -2 -33 19 -26
69 -25 73 20 84 3 0 13 -20 22 -46z m-1217 -253 c5 -16 12 -19 31 -14 20 5 26
2 31 -15 5 -18 11 -21 33 -16 26 6 29 3 45 -44 l16 -50 45 17 c54 20 49 26
100 -114 36 -98 38 -102 61 -93 33 12 32 12 43 -16 8 -20 14 -24 34 -19 21 5
26 0 41 -40 16 -41 19 -44 41 -36 19 7 24 5 29 -11 5 -16 13 -20 32 -16 18 3
27 -1 35 -18 10 -22 12 -22 44 -9 50 21 59 18 77 -27 14 -36 20 -41 40 -35 21
5 25 0 41 -44 10 -28 20 -50 21 -50 2 0 16 5 30 10 23 9 28 7 32 -11 5 -16 12
-20 34 -17 23 4 29 0 34 -20 3 -13 5 -25 3 -26 -2 -2 -34 -12 -71 -24 -70 -23
-87 -22 -87 4 0 17 2 17 -50 -1 -45 -16 -60 -13 -60 11 0 19 -9 18 -86 -11
-65 -24 -66 -24 -71 -5 -3 11 -9 20 -13 20 -8 0 -170 -58 -238 -85 -38 -16
-43 -21 -37 -42 4 -19 1 -26 -15 -30 -17 -5 -20 -11 -15 -33 5 -23 2 -29 -19
-34 -22 -5 -25 -10 -19 -36 3 -18 1 -30 -5 -30 -6 0 -17 -3 -25 -6 -10 -3 -17
3 -21 20 -5 22 -9 24 -31 16 -20 -7 -25 -6 -30 10 -8 25 -17 25 -83 0 -61 -23
-71 -24 -77 -7 -44 126 -45 129 -77 122 -24 -6 -30 -3 -35 14 -4 16 -11 19
-28 15 -17 -4 -26 0 -35 15 -8 16 -17 20 -34 15 -19 -4 -26 -1 -31 16 -5 17
-12 20 -35 15 -22 -5 -28 -2 -33 14 -5 20 -7 20 -47 6 -54 -19 -57 -19 -65 5
-5 15 -12 19 -29 14 -17 -4 -25 1 -34 20 -10 23 -15 25 -38 16 -15 -6 -28 -9
-29 -8 -7 9 -45 121 -45 133 0 8 11 17 24 21 22 5 24 9 15 31 -8 21 -6 26 12
30 17 5 20 11 15 33 -4 24 -1 29 20 34 21 6 23 9 13 27 -13 25 -6 33 44 49 35
11 37 14 31 44 -5 28 -2 34 16 39 18 5 20 9 10 27 -10 19 -7 22 40 42 46 19
51 24 45 45 -4 19 -1 26 15 30 17 4 20 11 15 32 -5 24 -1 28 32 40 21 8 44 16
51 18 6 3 12 -2 12 -11 0 -30 26 -27 131 13 122 47 126 47 134 21z m2363 -177
c2 -14 -4 -22 -17 -26 -23 -6 -31 0 -31 24 0 33 43 35 48 2z m-3818 -54 c0
-21 -31 -34 -42 -17 -13 22 -9 46 10 50 19 4 32 -9 32 -33z m-27 -60 c4 -15
-1 -23 -20 -30 -27 -10 -42 0 -43 28 0 27 56 30 63 2z m3961 -45 c11 -28 6
-42 -15 -47 -15 -4 -22 1 -30 19 -5 14 -9 27 -9 29 0 3 21 10 41 14 4 0 10 -6
13 -15z m-4000 -21 c7 -16 -8 -33 -30 -33 -14 0 -26 28 -18 41 9 15 41 10 48
-8z m4227 -450 c24 -64 39 -118 34 -120 -33 -11 -35 -19 -19 -67 17 -49 15
-57 -19 -69 -5 -1 -1 -22 9 -46 14 -36 15 -44 3 -52 -8 -5 -18 -9 -24 -9 -8 0
-75 171 -75 191 0 4 9 9 20 12 16 4 19 11 15 30 -5 20 -2 27 15 32 24 7 24 7
-21 123 l-28 73 22 9 c12 5 23 9 23 9 1 1 21 -52 45 -116z m-1546 -133 c3 -6
-1 -7 -9 -4 -10 4 -16 1 -16 -7 0 -7 -3 -10 -6 -6 -7 7 4 27 16 27 5 0 12 -4
15 -10z m-255 -44 c0 -25 16 -27 65 -8 29 10 50 13 52 7 11 -31 21 -37 41 -26
19 10 22 8 28 -13 5 -21 10 -24 34 -20 22 5 28 2 33 -15 4 -18 9 -20 30 -12
23 9 25 6 61 -86 51 -131 54 -149 26 -156 -17 -4 -21 -10 -15 -24 14 -37 13
-51 -3 -49 -12 1 -16 -8 -15 -37 0 -20 -4 -40 -10 -44 -6 -3 -7 -1 -3 5 4 7 1
12 -8 12 -17 0 -21 -15 -7 -24 17 -11 0 -42 -22 -42 -18 1 -21 -4 -19 -24 2
-21 -3 -28 -34 -39 -25 -9 -32 -16 -24 -21 8 -5 3 -8 -14 -7 -19 2 -29 9 -32
24 -6 22 -11 22 -74 -4 -8 -3 -24 -8 -34 -10 -43 -8 -71 -28 -68 -50 2 -15 -5
-23 -25 -30 -31 -11 -56 -6 -47 8 7 12 -6 11 -73 -6 -72 -19 -83 -19 -83 1 0
11 -6 14 -21 9 -14 -5 -27 -1 -39 13 -10 11 -16 22 -13 25 3 3 -2 27 -11 53
-9 26 -15 48 -13 48 1 1 19 9 40 19 46 21 57 21 57 3 0 -27 19 -27 91 -2 71
25 71 25 77 4 6 -23 26 -21 112 11 81 31 82 32 69 69 -6 18 -18 32 -26 32 -12
0 -12 2 -1 14 8 7 24 17 37 21 18 5 24 2 28 -14 4 -16 11 -19 34 -14 22 4 29
2 29 -10 0 -25 14 -28 61 -10 56 21 52 18 40 41 -7 14 -18 18 -35 15 -18 -4
-26 0 -31 16 -5 17 -10 19 -31 11 -33 -13 -31 -14 -38 15 -4 14 -13 25 -21 25
-7 0 -17 5 -21 12 -5 7 -3 8 6 3 8 -5 11 -3 8 6 -3 8 -11 13 -18 11 -16 -4
-50 7 -49 16 4 27 -1 34 -17 21 -14 -11 -19 -10 -35 10 -11 14 -19 18 -19 10
0 -9 -3 -10 -8 -4 -4 6 -19 10 -34 10 -21 -1 -25 2 -16 12 7 9 6 14 -6 19 -9
4 -20 4 -23 0 -4 -3 -1 -6 6 -6 7 0 9 -4 6 -10 -6 -10 -55 35 -55 50 0 4 10
14 21 22 16 10 20 20 15 36 -5 13 -12 20 -19 16 -7 -4 -8 -3 -4 2 5 5 14 9 20
10 7 0 20 2 30 2 14 2 16 6 7 21 -8 16 -6 22 7 30 26 15 43 13 43 -3z m-1485
-46 c-3 -5 -12 -10 -18 -10 -7 0 -6 4 3 10 19 12 23 12 15 0z m69 -28 c3 -5
-1 -9 -9 -9 -8 0 -12 4 -9 9 3 4 7 8 9 8 2 0 6 -4 9 -8z m576 -1 c0 -5 3 -16
6 -24 7 -20 -35 -34 -47 -16 -14 22 -10 37 9 42 28 8 32 7 32 -2z m-745 -10
c3 -5 2 -12 -3 -15 -5 -3 -9 1 -9 9 0 17 3 19 12 6z m1255 5 c0 -2 -6 -9 -14
-15 -11 -9 -16 -9 -22 0 -4 7 -3 9 4 5 6 -3 13 -2 17 4 6 10 15 14 15 6z
m-1516 -62 c3 -8 2 -12 -4 -9 -6 3 -10 10 -10 16 0 14 7 11 14 -7z m407 -7
c-10 -9 -11 -8 -5 6 3 10 9 15 12 12 3 -3 0 -11 -7 -18z m1164 -7 c-10 -11
-22 -20 -28 -20 -5 0 1 9 14 20 31 25 37 25 14 0z m-1330 -8 c-3 -3 -11 0 -18
7 -9 10 -8 11 6 5 10 -3 15 -9 12 -12z m2029 4 c-10 -8 -21 -12 -24 -10 -5 6
21 24 34 24 6 0 1 -6 -10 -14z m-1897 -22 c-3 -3 -12 -4 -19 -1 -8 3 -5 6 6 6
11 1 17 -2 13 -5z m-47 -9 c0 -7 -30 -13 -34 -7 -3 4 4 9 15 9 10 1 19 0 19
-2z m-769 -136 c11 -34 10 -42 -2 -50 -22 -14 -31 -6 -46 35 -14 43 -11 56 17
56 14 0 23 -12 31 -41z m434 31 c-3 -5 -12 -10 -18 -10 -7 0 -6 4 3 10 19 12
23 12 15 0z m48 -15 c-3 -9 -8 -14 -10 -11 -3 3 -2 9 2 15 9 16 15 13 8 -4z
m-103 -9 c0 -2 -7 -7 -16 -10 -8 -3 -12 -2 -9 4 6 10 25 14 25 6z m82 -20 c7
4 8 2 4 -5 -4 -6 -4 -25 -1 -42 6 -28 10 -30 36 -25 16 3 43 9 59 12 23 5 30
3 28 -7 -2 -7 5 -15 16 -17 12 -3 16 0 11 8 -4 7 4 5 18 -4 26 -18 27 -56 1
-56 -23 0 -24 -16 -7 -64 13 -34 21 -45 33 -40 62 25 134 46 137 38 12 -34 20
-34 86 -9 66 24 67 24 77 5 13 -23 6 -40 -16 -40 -12 0 -14 -7 -9 -29 5 -24 2
-29 -16 -34 -17 -5 -20 -11 -16 -29 6 -21 1 -26 -41 -41 -26 -10 -48 -14 -50
-10 -11 33 -19 33 -116 1 -90 -30 -98 -31 -107 -15 -12 21 -33 23 -25 2 4 -12
2 -13 -14 -2 -11 6 -23 20 -26 29 -6 20 -20 23 -29 7 -5 -7 -13 -4 -26 7 -10
9 -17 19 -15 23 2 3 -10 6 -27 6 -25 0 -33 5 -35 22 -3 18 -7 21 -25 14 -35
-12 -54 -3 -55 27 0 15 -7 46 -16 69 -14 41 -14 41 11 48 20 5 24 11 20 31 -3
18 1 28 15 35 15 8 19 18 14 39 -5 27 2 36 37 45 4 2 10 4 15 5 4 1 10 2 15 1
4 0 7 5 7 12 0 6 5 4 11 -6 6 -9 15 -14 21 -11z m309 -59 c-10 -9 -11 -8 -5 6
3 10 9 15 12 12 3 -3 0 -11 -7 -18z m1395 11 c4 -7 3 -8 -5 -4 -6 4 -20 2 -29
-6 -15 -12 -16 -11 -3 5 16 20 27 22 37 5z m142 -43 c-3 -3 -9 2 -12 12 -6 14
-5 15 5 6 7 -7 10 -15 7 -18z m353 7 c-7 -2 -18 1 -23 6 -8 8 -4 9 13 5 13 -4
18 -8 10 -11z m1465 -67 c19 -47 18 -54 -11 -65 -20 -8 -24 -14 -19 -33 6 -25
-17 -44 -37 -31 -15 9 -10 44 5 44 24 0 27 16 11 54 -22 52 -20 58 28 65 4 0
15 -15 23 -34z m-228 -127 c2 -9 -6 -22 -17 -27 -17 -9 -22 -8 -31 9 -6 11 -8
25 -5 31 10 16 49 6 53 -13z m90 -96 c12 -37 17 -42 40 -40 36 4 45 -36 11
-45 -13 -3 -19 -11 -16 -19 3 -7 8 -20 11 -29 5 -12 -8 -20 -56 -37 -35 -12
-66 -22 -70 -22 -4 0 -16 21 -27 46 -18 40 -23 45 -43 39 -32 -10 -32 -9 -14
-61 13 -38 13 -49 4 -56 -24 -15 -34 -8 -47 30 -8 20 -16 42 -18 49 -3 6 5 14
17 18 17 5 20 12 16 31 -5 20 -2 26 19 34 20 8 25 16 23 37 -2 22 2 29 19 31
14 2 23 -3 27 -16 10 -31 49 -17 43 15 -3 15 2 27 12 33 25 14 34 7 49 -38z
m91 -13 c-21 -13 -27 -11 -39 11 -9 17 -7 22 12 29 18 7 25 5 32 -11 7 -14 6
-22 -5 -29z m-3635 33 c3 -5 -1 -9 -9 -9 -8 0 -12 4 -9 9 3 4 7 8 9 8 2 0 6
-4 9 -8z m-59 -21 c3 -5 2 -12 -3 -15 -5 -3 -9 1 -9 9 0 17 3 19 12 6z m87
-25 c7 4 8 2 4 -4 -4 -6 -13 -9 -21 -6 -8 4 -12 11 -8 17 5 8 8 7 11 -1 2 -7
9 -9 14 -6z m3332 -232 c10 -25 7 -31 -14 -37 -26 -7 -50 31 -29 44 21 13 36
11 43 -7z"/>
<path d="M5196 2691 c-7 -11 3 -41 14 -41 24 0 37 13 33 31 -5 19 -37 26 -47
10z"/>
<path d="M5306 2681 c-7 -11 3 -41 14 -41 24 0 37 13 33 31 -5 19 -37 26 -47
10z"/>
<path d="M1645 5160 c-3 -5 -3 -20 0 -33 6 -22 1 -27 -39 -42 -31 -12 -46 -24
-46 -36 0 -27 13 -30 65 -13 40 14 46 20 41 38 -4 14 1 26 14 36 13 10 18 22
14 38 -6 22 -38 31 -49 12z"/>
<path d="M3192 2612 c-10 -7 -9 -18 5 -56 15 -41 16 -48 3 -56 -23 -15 -31
-12 -37 11 -5 16 -11 19 -33 14 -24 -5 -29 -2 -34 20 -6 23 -10 26 -36 20 -23
-5 -30 -3 -30 9 0 24 -17 28 -56 11 -46 -19 -64 -19 -64 -1 0 26 -16 26 -83 0
-58 -22 -65 -28 -64 -50 2 -23 -6 -29 -87 -59 -91 -35 -106 -36 -106 -8 0 12
-7 14 -29 10 -26 -5 -29 -3 -41 34 -15 46 -22 52 -45 43 -12 -5 -14 -14 -10
-34 6 -25 3 -28 -40 -40 -43 -12 -46 -14 -40 -41 4 -16 3 -29 -2 -29 -4 0 -14
-4 -21 -9 -11 -6 -10 -16 4 -50 15 -37 20 -42 41 -37 19 5 25 1 33 -19 11 -29
18 -30 67 -10 44 18 43 18 43 0 0 -24 22 -27 67 -11 41 14 41 14 47 -10 l6
-24 66 25 c76 29 94 31 94 11 0 -27 16 -25 105 9 86 34 104 34 105 3 0 -14 21
-9 136 33 111 41 113 42 108 69 -5 22 -2 28 15 33 21 5 21 5 -5 74 -15 37 -31
80 -36 96 -10 28 -23 33 -46 19z"/>
<path d="M2620 2015 c-19 -7 -82 -30 -140 -51 -58 -20 -124 -45 -147 -55 -22
-10 -92 -37 -154 -59 -62 -22 -116 -44 -120 -48 -4 -4 -3 -17 2 -29 7 -19 12
-21 33 -13 14 5 27 6 30 2 2 -4 23 -55 46 -114 23 -60 45 -108 49 -108 4 0 34
9 66 20 72 25 71 25 78 0 4 -16 11 -19 29 -15 19 5 27 1 36 -19 l12 -26 67 25
c37 14 69 27 71 29 7 7 -22 88 -33 92 -6 3 -41 -7 -78 -21 l-66 -25 -12 21
c-8 15 -17 19 -34 15 -19 -5 -25 0 -40 40 -9 25 -13 49 -9 53 9 7 67 29 284
107 93 33 101 33 113 0 3 -8 75 12 139 39 11 4 18 0 23 -15 5 -17 12 -20 32
-15 19 4 26 1 30 -15 6 -24 13 -25 60 -5 42 18 43 17 63 -38 14 -36 20 -42 42
-39 20 2 28 -3 34 -20 3 -12 3 -24 -2 -25 -27 -9 -36 -22 -30 -41 7 -20 8 -20
53 -5 46 16 54 13 65 -20 2 -4 25 0 51 10 49 18 57 16 70 -20 1 -5 43 7 92 26
82 31 90 36 87 59 -3 21 4 27 42 42 50 19 53 26 31 79 l-15 36 -65 -24 c-36
-14 -70 -25 -75 -25 -5 0 -18 20 -29 45 -11 25 -22 45 -24 45 -3 0 -22 -7 -43
-16 -36 -15 -38 -15 -53 5 -11 14 -23 19 -38 15 -16 -4 -23 0 -28 15 -5 18
-12 21 -39 15 -28 -5 -34 -2 -39 16 -5 18 -9 20 -26 10 -18 -9 -23 -7 -32 14
-11 24 -12 25 -50 9 -43 -17 -69 -12 -69 12 0 19 5 20 -70 -10 -74 -29 -80
-30 -80 -11 0 25 -19 28 -66 10 -39 -15 -47 -15 -55 -3 -5 8 -9 20 -9 27 0 15
-14 14 -60 -3z"/>
<path d="M2892 1613 c-94 -33 -112 -34 -112 -7 0 16 -10 14 -67 -7 -25 -9 -31
-37 -10 -45 7 -2 30 2 50 11 37 15 37 15 47 -10 l9 -25 53 21 c29 12 72 28 96
36 23 8 42 20 42 26 -1 33 -17 33 -108 0z"/>
<path d="M1613 1579 c-22 -8 -22 -9 -6 -55 16 -47 13 -55 -20 -66 -6 -3 33
-113 169 -476 13 -36 20 -42 41 -40 26 3 33 -11 132 -280 35 -95 36 -102 17
-102 -8 0 -17 -4 -20 -9 -3 -5 16 -70 44 -145 55 -149 56 -156 36 -156 -28 0
-26 -19 17 -131 39 -104 45 -114 70 -117 15 -2 27 -1 27 2 0 3 -20 60 -45 127
-46 123 -47 129 -11 142 6 2 -14 68 -44 146 -54 145 -55 150 -16 164 8 2 -4
41 -39 128 -4 11 1 18 16 22 17 5 20 11 15 30 -4 18 -1 27 10 31 25 9 34 7 34
-8 0 -22 15 -27 44 -16 24 9 26 7 38 -31 14 -50 25 -55 73 -35 46 20 42 20 48
-4 6 -24 22 -25 70 -5 32 13 35 18 28 37 -9 23 -13 24 -42 13 -11 -4 -18 1
-22 16 -5 18 -11 21 -35 16 -24 -5 -31 -2 -35 14 -4 15 -11 18 -30 14 -19 -5
-25 -2 -30 15 -5 18 -11 21 -31 16 -19 -5 -26 -2 -31 15 -6 17 -12 20 -40 15
-27 -5 -33 -3 -38 14 -4 16 -11 19 -30 15 -26 -7 -29 -1 -72 123 -3 7 -16 12
-31 10 -25 -3 -28 3 -86 160 -57 154 -62 162 -85 160 -21 -3 -28 4 -43 42 -32
82 -32 87 -10 93 24 6 25 21 2 68 -15 32 -20 36 -39 28z"/>
<path d="M2608 1563 c-19 -5 -23 -20 -10 -40 8 -13 52 -7 52 7 0 15 -12 40
-19 39 -3 -1 -14 -3 -23 -6z"/>
<path d="M3016 1502 l-70 -26 -14 22 -14 21 -93 -34 -93 -34 -6 24 -6 25 -66
-25 c-80 -30 -90 -31 -97 -5 -5 20 -6 20 -69 -4 -137 -52 -128 -43 -103 -102
12 -29 18 -34 39 -28 21 5 25 1 36 -33 7 -21 14 -41 17 -45 2 -4 34 4 71 18
67 26 67 26 80 5 11 -15 21 -19 42 -14 25 5 30 2 36 -21 5 -20 11 -25 23 -21
9 4 106 40 216 81 270 100 247 89 235 119 -13 34 -13 32 10 38 23 6 27 35 6
43 -7 3 -30 -2 -50 -10 -35 -14 -36 -14 -48 8 l-13 24 -69 -26z"/>
<path d="M2016 1341 c-10 -16 5 -41 24 -41 23 0 32 13 24 34 -7 17 -39 22 -48
7z"/>
<path d="M4176 732 c-14 -3 -17 -10 -12 -32 4 -23 1 -30 -14 -35 -11 -4 -20
-10 -20 -14 0 -4 53 -151 119 -327 112 -301 120 -319 145 -322 14 -2 26 0 26
4 0 4 -54 153 -120 330 -66 178 -120 327 -120 333 0 5 9 13 20 16 11 3 20 10
20 14 0 17 -26 37 -44 33z"/>
<path d="M2373 719 c-26 -10 -26 -9 -13 -43 8 -22 13 -24 34 -16 21 8 25 6 30
-15 l6 -25 53 20 c62 24 57 23 57 6 0 -24 18 -28 58 -16 48 16 52 20 41 48 -8
22 -10 22 -45 7 -46 -19 -64 -19 -64 -1 0 24 -16 27 -54 11 -49 -21 -63 -19
-73 9 -7 19 -12 22 -30 15z"/>
</g>
</svg>
